<svg t="1709945049502" class="icon" viewBox="0 0 1024 1024" version="1.1" xmlns="http://www.w3.org/2000/svg" p-id="1907" width="200" height="200"><path d="M556.544 190.378667A50.645333 50.645333 0 0 0 512 166.997333c-23.04 0-36.096 11.093333-44.586667 23.381334-1.194667 1.706667-2.261333 3.498667-3.285333 5.205333a3103.573333 3103.573333 0 0 1 95.701333 0 74.624 74.624 0 0 0-3.285333-5.205333z m68.437333 6.912a142.08 142.08 0 0 0-19.242666-40.832c-16.554667-23.978667-46.165333-49.194667-93.738667-49.194667-47.616 0-77.226667 25.216-93.738667 49.194667a141.952 141.952 0 0 0-19.242666 40.832c-52.522667 1.92-105.002667 5.12-157.44 9.728l-73.514667 6.442666a29.866667 29.866667 0 1 0 5.205333 59.52l73.557334-6.4a3042.090667 3042.090667 0 0 1 530.346666-0.042666l73.557334 6.4a29.866667 29.866667 0 0 0 5.205333-59.477334l-73.557333-6.4a3101.568 3101.568 0 0 0-157.44-9.813333zM233.514667 311.466667a29.866667 29.866667 0 0 1 30.976 28.672l15.061333 390.570666A140.8 140.8 0 0 0 420.224 866.133333H603.776a140.8 140.8 0 0 0 140.672-135.381333l15.018667-390.570667a29.866667 29.866667 0 1 1 59.733333 2.304l-15.061333 390.570667a200.533333 200.533333 0 0 1-200.362667 192.853333H420.224a200.533333 200.533333 0 0 1-200.362667-192.853333L204.8 342.485333a29.866667 29.866667 0 0 1 28.714667-30.976zM627.2 469.333333a29.866667 29.866667 0 1 0-59.733333 0v213.333334a29.866667 29.866667 0 1 0 59.733333 0v-213.333334z m-200.533333-29.866666a29.866667 29.866667 0 0 1 29.866666 29.866666v213.333334a29.866667 29.866667 0 0 1-59.733333 0v-213.333334a29.866667 29.866667 0 0 1 29.866667-29.866666z" fill="#d81e06" p-id="1908"></path></svg>